<?xml version="1.0" encoding="utf-8"?>
<!-- Generator: Adobe Illustrator 27.7.0, SVG Export Plug-In . SVG Version: 6.00 Build 0)  -->
<svg version="1.1" id="Laag_1" xmlns="http://www.w3.org/2000/svg" xmlns:xlink="http://www.w3.org/1999/xlink" x="0px" y="0px"
	 viewBox="0 0 245.1 245.1" style="enable-background:new 0 0 245.1 245.1;" xml:space="preserve">
<style type="text/css">
	.st0{fill:url(#SVGID_1_);}
	.st1{fill:#FFFFFF;}
</style>
<linearGradient id="SVGID_1_" gradientUnits="userSpaceOnUse" x1="14.9197" y1="197.7197" x2="230.2624" y2="51.2867" gradientTransform="matrix(1 0 0 -1 0 247.08)">
	<stop  offset="0" style="stop-color:#DA007B"/>
	<stop  offset="0.6929" style="stop-color:#3122F1"/>
	<stop  offset="1" style="stop-color:#08A2F3"/>
</linearGradient>
<path class="st0" d="M122.5,0C54.8,0,0,54.9,0,122.5c0,67.7,54.9,122.5,122.5,122.5c67.7,0,122.5-54.9,122.5-122.5
	C245.1,54.9,190.2,0,122.5,0z M199.7,152.6c-2.1,0.1-2.9-0.6-3.5-2.6c-2.9-11.2-5.9-22.4-9.1-34c-0.5,0.9-0.9,1.5-1.3,2.1
	c-5.1,9.8-10.2,19.5-15.3,29.3c-2.1,4-5.3,6.1-10.1,6.2c-4.9,0.1-8.4-1.7-10.6-6c-4.9-9.3-9.8-18.5-14.6-27.7
	c-0.5-0.9-0.9-1.8-1.7-3.3c-1.1,3.7-2,6.7-2.8,9.7c-1.8,6.2-3.6,12.5-5.4,18.8c-1.3,4.7-4.1,7.8-9.1,8.5c-5.1,0.7-9-1.5-11.4-5.9
	c-6.1-10.8-12.1-21.6-18.1-32.5c-0.4-0.7-0.7-1.4-1.3-2.4c-2.3,4.2-4.4,8.2-6.6,12.1c-4.2,7.5-8.4,15-12.7,22.5
	c-3.2,5.5-8.1,7.5-13.6,5.7c-3.9-1.3-6-4.2-7-7.9c-3.9-13.1-7.7-26.2-11.6-39.3c-1.2-4.2-2.5-8.4-3.8-13.1h3.4c4.1,0,8.2,0.1,12.3,0
	c1.8-0.1,2.7,0.5,3.2,2.4c2.9,11.3,6,22.5,9.1,34.2c0.5-0.8,0.9-1.4,1.2-2c5.1-9.6,10.1-19.2,15.2-28.8c3.1-5.9,7-7.7,13.6-6.6
	c3.6,0.6,5.8,3,7.4,6c4.9,9.3,9.8,18.7,14.7,28c0.4,0.8,0.8,1.5,1.5,2.9c0.5-1.3,0.8-2.1,1-2.9c2.4-8.4,4.9-16.8,7.3-25.2
	c1.4-4.9,4.2-8.2,9.4-8.8c5.3-0.6,9,1.9,11.4,6.4c6.1,11,12.2,22.1,18.3,33.2c0.2,0.3,0.4,0.7,0.8,1.2c0.5-0.8,0.8-1.4,1.2-2
	c6-10.8,11.9-21.5,17.9-32.3c3.3-5.8,8.2-7.9,13.7-6.1c3.5,1.1,5.8,3.5,6.8,7c5.1,17.3,10.2,34.5,15.3,51.8c0.1,0.4,0.1,0.8,0.3,1.4
	c-0.9,0.1-1.7,0.2-2.4,0.2C208.2,152.5,204,152.4,199.7,152.6z"/>
<g id="_x32_nbiP9_00000084513680020367689770000013618708513602574504_">
	<g>
		<path class="st1" d="M214.9,152.4c-0.9,0.1-1.7,0.2-2.4,0.2c-4.3,0-8.5-0.1-12.8,0c-2.1,0.1-2.9-0.6-3.5-2.6
			c-2.9-11.2-5.9-22.4-9.1-34c-0.5,0.9-0.9,1.5-1.3,2.1c-5.1,9.8-10.2,19.5-15.3,29.3c-2.1,4.1-5.3,6.1-10.1,6.2
			c-4.9,0.1-8.4-1.7-10.6-6.1c-4.9-9.3-9.8-18.5-14.6-27.7c-0.5-0.9-0.9-1.8-1.7-3.3c-1.1,3.7-2,6.7-2.8,9.7
			c-1.8,6.3-3.6,12.5-5.4,18.8c-1.3,4.7-4.1,7.8-9.1,8.5c-5.1,0.7-9-1.5-11.4-5.9c-6.1-10.8-12.1-21.6-18.1-32.4
			c-0.4-0.7-0.7-1.4-1.3-2.4c-2.3,4.2-4.4,8.2-6.6,12.1c-4.2,7.5-8.4,15-12.7,22.5c-3.2,5.5-8.1,7.5-13.6,5.7c-3.9-1.3-6-4.2-7-7.9
			c-3.9-13.1-7.7-26.2-11.6-39.3c-1.2-4.2-2.5-8.4-3.8-13.1h3.4c4.1,0,8.2,0.1,12.3,0c1.8-0.1,2.7,0.5,3.2,2.4
			c2.9,11.3,6,22.5,9.1,34.2c0.5-0.8,0.9-1.4,1.2-2c5.1-9.6,10.1-19.2,15.2-28.8c3.1-5.9,7-7.7,13.6-6.6c3.6,0.6,5.8,3,7.4,6
			c4.9,9.3,9.8,18.7,14.7,28c0.4,0.8,0.8,1.5,1.5,2.9c0.5-1.4,0.8-2.1,1-2.9c2.4-8.4,4.9-16.8,7.3-25.2c1.4-4.9,4.2-8.2,9.4-8.8
			c5.3-0.6,9,1.9,11.4,6.4c6.1,11,12.2,22.1,18.3,33.2c0.2,0.3,0.4,0.7,0.8,1.2c0.5-0.8,0.8-1.4,1.2-2c6-10.8,11.9-21.5,17.9-32.3
			c3.3-5.8,8.2-7.9,13.7-6.1c3.5,1.1,5.8,3.5,6.8,7c5.1,17.3,10.2,34.5,15.3,51.8C214.8,151.3,214.8,151.7,214.9,152.4z"/>
	</g>
</g>
</svg>
